<svg class="svg-icon" style="width: 1em; height: 1em;vertical-align: middle;fill: currentColor;overflow: hidden;" viewBox="0 0 1024 1024" version="1.1" xmlns="http://www.w3.org/2000/svg"><path d="M734.433373 106.861401c-97.225136 0-181.725343 49.294422-223.596137 121.2142-41.841443-71.919778-126.371001-121.214199-223.593879-121.2142-146.788235 0-223.593879 126.53582-223.59388 251.543115 0 291.964404 415.1474 544.39709 432.80561 554.999691a28.073414 28.073414 0 0 0 14.384407 3.987265 27.951493 27.951493 0 0 0 14.386665-3.987265c17.68756-10.602602 432.801094-263.035287 432.801093-554.999691-0.002258-125.007294-76.805644-251.543114-223.593879-251.543115m-223.596137 749.553821c-72.249416-46.61442-391.289289-265.683679-391.289289-498.010706 0-94.220011 52.486943-195.644644 167.69541-195.644645 94.111637 0 195.646902 64.112325 195.646902 167.69541 0 15.434281 12.526242 27.949235 27.946977 27.949235 15.447828 0 27.949235-12.512696 27.949235-27.949235 0-103.580826 101.560101-167.695409 195.644644-167.69541 115.233302 0 167.695409 101.424633 167.69541 195.644645 0.004516 232.056092-319.09406 451.364678-391.289289 498.010706" fill="#040000" /></svg>