<svg xmlns="http://www.w3.org/2000/svg" width="20.022" height="20.024" viewBox="0 0 20.022 20.024">
  <path id="paper-plane" d="M19.29.736A2.475,2.475,0,0,0,16.954.069L3.6,2.88a4.168,4.168,0,0,0-2.38,7.076l1.433,1.433a.834.834,0,0,1,.244.591v2.643a2.474,2.474,0,0,0,.25,1.072l-.007.006.022.022A2.5,2.5,0,0,0,4.3,16.854l.022.022.006-.007a2.474,2.474,0,0,0,1.072.25H8.046a.834.834,0,0,1,.59.244L10.069,18.8a4.141,4.141,0,0,0,2.937,1.229,4.213,4.213,0,0,0,1.339-.22,4.116,4.116,0,0,0,2.79-3.326L19.951,3.1A2.482,2.482,0,0,0,19.29.736ZM3.839,10.211,2.4,8.779a2.453,2.453,0,0,1-.6-2.565,2.485,2.485,0,0,1,2.086-1.69L17.105,1.741,4.569,14.279v-2.3A2.485,2.485,0,0,0,3.839,10.211ZM15.5,16.194a2.5,2.5,0,0,1-4.246,1.428L9.814,16.187a2.485,2.485,0,0,0-1.768-.733h-2.3L18.286,2.92Z" transform="translate(-0.003 0)" fill="#fff"/>
</svg>
