<?xml version="1.0" encoding="utf-8"?>
<!-- Generator: Adobe Illustrator 24.3.0, SVG Export Plug-In . SVG Version: 6.00 Build 0)  -->
<svg version="1.1" id="Capa_1" xmlns="http://www.w3.org/2000/svg" xmlns:xlink="http://www.w3.org/1999/xlink" x="0px" y="0px"
	 viewBox="0 0 482 482" style="enable-background:new 0 0 482 482;" xml:space="preserve">
<style type="text/css">
	.st0{fill:#2D8EFF;}
</style>
<path class="st0" d="M465.8,203.8l-63.6-34.1l50.8-34.2c2.9-1.9,4.5-5.3,4.3-8.7c-0.2-3.5-2.3-6.5-5.4-8.1L308.7,47
	c-3-1.5-6.6-1.4-9.5,0.4L241,83.5l-58.2-36.1c-2.9-1.8-6.5-1.9-9.5-0.4L30,118.6c-3.1,1.6-5.2,4.6-5.4,8.1c-0.2,3.5,1.4,6.8,4.3,8.7
	l50.8,34.2l-63.6,34.1c-3.1,1.7-5.1,4.9-5.1,8.4c-0.1,3.5,1.8,6.8,4.8,8.6l141.8,84c1.5,0.9,3.3,1.4,5,1.4c1.6,0,3.2-0.4,4.6-1.2
	l64-34.3v145.7l-123.3-61.8v-56.3c0-5.4-4.4-9.8-9.8-9.8c-5.4,0-9.8,4.4-9.8,9.8v62.4c0,3.7,2.1,7.1,5.4,8.7l142.9,71.6
	c0.1,0,0.2,0.1,0.3,0.1c0.2,0.1,0.3,0.1,0.5,0.2c0.2,0.1,0.5,0.2,0.7,0.3c0.1,0,0.3,0.1,0.5,0.1c0.3,0.1,0.5,0.1,0.8,0.2
	c0.1,0,0.3,0.1,0.4,0.1c0.4,0,0.7,0.1,1.1,0.1c0,0,0.1,0,0.1,0c0.4,0,0.8,0,1.2-0.1c0.1,0,0.2,0,0.3-0.1c0.3,0,0.6-0.1,0.9-0.2
	c0.1,0,0.3-0.1,0.4-0.1c0.3-0.1,0.5-0.2,0.8-0.3c0.2-0.1,0.3-0.1,0.5-0.2c0.1,0,0.2-0.1,0.3-0.1l142.9-71.6c3.3-1.7,5.4-5,5.4-8.7
	v-62.4c0-5.4-4.4-9.8-9.8-9.8c-5.4,0-9.8,4.4-9.8,9.8v56.3l-123.3,61.8V270.7l64,34.3c1.4,0.8,3,1.2,4.6,1.2c1.7,0,3.4-0.5,5-1.4
	l141.8-84c3-1.8,4.9-5.1,4.8-8.6C470.9,208.6,468.9,205.4,465.8,203.8z M241,243l-122.4-72.5L241,106l122.4,64.5L241,243z
	 M304.9,66.9l123.4,61.7l-45,30.3L260.6,94.3L304.9,66.9z M177.1,66.9l44.2,27.4L98.8,158.9l-45-30.3L177.1,66.9z M162.8,285.2
	L40.6,212.8l58.3-31.2L221.1,254L162.8,285.2z M319.2,285.2L260.9,254l122.2-72.4l58.3,31.2L319.2,285.2z"/>
</svg>
